<?xml version="1.0" standalone="no"?>
<!DOCTYPE svg PUBLIC "-//W3C//DTD SVG 20010904//EN"
 "http://www.w3.org/TR/2001/REC-SVG-20010904/DTD/svg10.dtd">
<svg version="1.0" xmlns="http://www.w3.org/2000/svg"
 width="700.000000pt" height="700.000000pt" viewBox="0 0 700.000000 700.000000"
 preserveAspectRatio="xMidYMid meet">
<metadata>
Created by potrace 1.14, written by Peter Selinger 2001-2017
</metadata>
<g transform="translate(0.000000,700.000000) scale(0.100000,-0.100000)"
fill="#000000" stroke="none">
<path d="M3378 6415 c-2 -1 -52 -5 -113 -9 -60 -3 -121 -8 -135 -10 -14 -3
-45 -7 -70 -10 -459 -58 -948 -257 -1292 -524 -35 -27 -103 -68 -153 -92 -342
-163 -558 -442 -629 -815 -8 -44 -19 -96 -22 -115 -4 -19 -8 -168 -9 -330 l-1
-295 -88 -206 c-73 -169 -93 -207 -115 -217 -41 -18 -179 -107 -230 -148 -25
-21 -84 -77 -131 -124 -174 -177 -296 -401 -357 -658 -23 -99 -26 -129 -29
-387 -4 -277 -4 -281 21 -352 24 -70 69 -153 110 -202 337 -409 993 -803 1765
-1061 296 -99 600 -175 858 -215 17 -3 44 -7 60 -9 15 -3 68 -10 117 -16 50
-6 106 -13 125 -15 189 -23 733 -24 870 -1 14 3 57 7 95 11 39 3 77 8 85 10 8
2 38 6 65 10 63 7 156 23 215 35 25 5 56 12 70 14 252 46 791 212 1007 311 17
8 33 15 36 15 7 0 212 93 317 144 163 79 392 213 529 309 381 268 593 503 640
707 13 55 12 492 0 575 -11 73 -58 262 -70 284 -5 9 -20 43 -33 77 -65 160
-161 301 -298 437 -91 90 -212 182 -303 228 l-62 33 -92 213 -92 214 5 82 c7
92 8 376 2 422 -2 17 -7 57 -10 90 -50 439 -263 754 -641 941 -65 32 -137 74
-159 93 -124 104 -408 266 -603 345 -264 105 -562 175 -866 201 -70 7 -384 14
-389 10z m-484 -899 c209 -51 318 -165 366 -382 26 -120 22 -387 -9 -567 -93
-546 -284 -806 -656 -892 -177 -41 -491 -36 -701 11 -381 86 -504 296 -507
869 -2 341 78 571 250 715 104 87 316 181 476 210 28 6 63 13 77 15 59 13 137
25 204 31 39 3 73 8 75 10 13 12 362 -5 425 -20z m1728 10 c57 -9 104 -16 143
-22 147 -20 357 -86 467 -147 168 -92 262 -201 322 -373 23 -65 30 -96 41
-169 2 -16 7 -48 11 -70 8 -45 7 -356 0 -425 -13 -108 -18 -145 -27 -167 -5
-13 -7 -23 -4 -23 7 0 -41 -133 -65 -179 -72 -142 -252 -247 -475 -277 -22 -3
-45 -7 -52 -9 -21 -7 -206 -19 -293 -18 -145 0 -254 14 -350 45 -256 81 -414
250 -515 554 -28 82 -69 257 -80 344 -4 30 -9 64 -12 75 -2 11 -6 101 -8 200
-3 146 -1 196 14 265 28 129 76 221 151 287 54 47 181 95 310 117 31 5 384 -1
422 -8z m-1045 -1776 c20 -34 99 -135 143 -181 36 -39 139 -124 187 -155 155
-99 321 -159 528 -190 88 -13 473 -13 555 0 19 3 53 8 76 11 298 42 510 139
677 307 44 44 81 77 85 74 3 -3 6 -443 6 -978 1 -811 -1 -974 -13 -985 -17
-18 -341 -179 -446 -222 -44 -18 -98 -41 -120 -51 -182 -80 -700 -238 -875
-266 -14 -3 -38 -7 -55 -11 -16 -3 -37 -7 -45 -8 -8 -1 -42 -7 -75 -13 -331
-60 -787 -75 -1140 -37 -47 5 -141 16 -170 21 -11 1 -40 6 -65 9 -84 13 -334
66 -470 101 -171 45 -418 127 -613 205 -185 74 -577 265 -578 282 -4 66 -1
1948 4 1953 3 3 34 -24 68 -61 71 -75 155 -138 244 -183 71 -35 133 -63 149
-67 6 -1 18 -5 26 -8 49 -20 176 -47 335 -72 22 -4 141 -8 265 -10 210 -4 270
0 410 28 308 61 570 235 749 500 31 46 33 47 84 47 50 0 53 -2 74 -40z"/>
<path d="M2749 2892 c-58 -28 -96 -74 -113 -134 -9 -31 -12 -153 -11 -443 1
-388 2 -401 23 -441 24 -48 69 -88 119 -109 113 -47 267 35 289 154 10 50 9
788 -1 831 -29 131 -184 203 -306 142z"/>
<path d="M4080 2901 c-59 -23 -95 -57 -121 -117 -21 -47 -22 -60 -21 -454 0
-273 4 -414 11 -434 42 -108 157 -167 267 -137 60 16 122 75 143 136 14 45 16
100 16 457 l-1 406 -30 48 c-57 93 -166 132 -264 95z"/>
</g>
</svg>
